<mxfile host="app.diagrams.net" modified="2023-06-23T18:55:08.717Z" agent="Mozilla/5.0 (Windows NT 10.0; Win64; x64) AppleWebKit/537.36 (KHTML, like Gecko) Chrome/114.0.0.0 Safari/537.36" version="21.5.0" etag="VEDg_6w2X2aPqkPsdoQU" type="github">
  <diagram name="Seite-1" id="tWzKK7W2CqsrX_OY1q8D">
    <mxGraphModel>
      <root>
        <mxCell id="0" />
        <mxCell id="1" parent="0" />
      </root>
    </mxGraphModel>
  </diagram>
</mxfile>
